<?xml version="1.0" standalone="no"?>
<!DOCTYPE svg PUBLIC "-//W3C//DTD SVG 20010904//EN"
 "http://www.w3.org/TR/2001/REC-SVG-20010904/DTD/svg10.dtd">
<svg version="1.0" xmlns="http://www.w3.org/2000/svg"
 width="500.000000pt" height="500.000000pt" viewBox="0 0 500.000000 500.000000"
 preserveAspectRatio="xMidYMid meet">
<metadata>
Created by potrace 1.16, written by Peter Selinger 2001-2019
</metadata>
<g transform="translate(0.000000,500.000000) scale(0.100000,-0.100000)"
fill="#000000" stroke="none">
<path d="M2265 4005 c-218 -35 -471 -134 -635 -250 -329 -233 -554 -576 -635
-970 -22 -106 -30 -352 -15 -479 55 -480 320 -896 730 -1149 324 -199 729
-269 1110 -191 285 58 604 238 801 451 239 260 372 557 410 914 19 186 -9 429
-72 628 -118 370 -382 690 -719 874 -158 85 -338 146 -512 172 -117 18 -351
18 -463 0z m255 -69 c0 -10 -9 -14 -26 -13 -32 2 -49 -21 -40 -56 5 -22 12
-27 36 -27 27 0 33 6 55 55 32 73 49 71 73 -6 19 -60 19 -61 25 -29 4 18 7 43
7 56 0 15 6 24 15 24 10 0 15 -10 15 -30 0 -25 4 -30 25 -30 18 0 25 5 25 19
0 20 17 37 26 28 3 -3 2 -32 -2 -66 -4 -42 -11 -61 -20 -61 -9 0 -14 11 -14
30 0 25 -4 30 -25 30 -20 0 -25 -5 -25 -25 0 -21 -5 -25 -28 -25 -16 0 -32 8
-40 20 -14 23 -37 26 -49 7 -4 -8 -25 -17 -46 -20 -32 -5 -43 -2 -63 18 -29
29 -31 68 -4 95 24 24 80 27 80 6z m321 -26 c10 0 19 -7 19 -15 0 -11 -7 -14
-25 -9 -18 4 -25 2 -25 -9 0 -8 9 -17 21 -20 12 -3 18 -10 15 -16 -4 -6 -14
-7 -22 -4 -17 6 -36 -15 -28 -29 3 -4 14 -8 25 -8 10 0 19 -6 20 -12 0 -7 10
15 22 49 l22 63 35 -18 c38 -19 53 -58 26 -68 -17 -7 -21 -31 -7 -53 6 -9 14
1 26 38 16 49 30 69 42 58 6 -6 -25 -107 -37 -120 -14 -16 -58 15 -64 44 -7
36 -22 38 -30 4 -5 -20 -10 -24 -24 -17 -9 5 -34 12 -54 16 -21 4 -38 9 -38
12 0 6 20 94 26 113 2 7 11 10 20 7 9 -3 24 -6 35 -6z m-135 -205 c180 -32
357 -105 506 -209 278 -195 473 -526 513 -871 3 -33 9 -70 12 -82 l5 -23 -606
0 -606 0 0 600 0 600 44 0 c24 0 83 -7 132 -15z m783 -142 c1 -1 0 -7 -4 -13
-5 -8 -13 -6 -26 6 -24 22 -38 10 -20 -17 15 -26 7 -37 -14 -19 -12 10 -19 10
-27 2 -9 -9 -2 -20 25 -47 20 -19 40 -35 45 -35 5 0 8 19 8 43 -1 40 0 42 28
42 16 0 33 -7 40 -17 15 -25 -1 -34 -23 -14 -23 21 -30 12 -24 -31 5 -31 6
-32 26 -18 12 8 31 15 43 15 24 0 64 -43 64 -67 0 -20 -55 -73 -75 -73 -26 0
-68 48 -63 74 4 18 1 22 -16 19 -14 -2 -39 14 -75 46 l-53 50 43 50 43 50 26
-22 c14 -12 27 -23 29 -24z m-1284 -218 c37 -93 72 -185 78 -202 10 -32 27
-45 27 -22 0 7 9 9 21 6 12 -3 28 0 36 9 8 8 19 14 24 14 6 0 -2 -12 -17 -26
-16 -17 -29 -23 -33 -16 -4 7 -12 6 -24 -3 -10 -7 -14 -16 -8 -19 5 -3 11 0
14 6 2 7 8 9 13 5 5 -4 4 -11 -2 -15 -6 -4 -13 -14 -16 -22 -5 -15 -93 156
-91 177 0 7 -3 10 -8 7 -5 -3 -19 2 -31 11 -23 17 -23 17 -1 11 12 -4 24 -3
27 2 5 8 -1 10 -45 14 -21 2 -41 37 -73 123 -6 16 -13 7 -37 -51 -26 -60 -35
-72 -62 -80 -18 -5 -33 -15 -33 -21 -3 -26 -5 -28 -15 -13 -9 13 -10 13 -7 0
1 -8 -19 -55 -45 -105 -57 -112 -60 -100 -6 25 23 52 61 145 86 205 25 61 49
121 55 135 l10 25 14 -35 c9 -22 13 -26 10 -10 -5 22 -1 25 24 26 19 1 30 -4
30 -12 0 -7 4 -16 10 -19 7 -4 7 3 0 20 -12 33 -13 42 -1 30 5 -6 40 -86 76
-180z m1491 -16 c3 -6 -8 -30 -25 -54 -17 -24 -31 -46 -31 -50 0 -4 20 5 44
19 39 23 45 24 57 10 10 -12 6 -21 -27 -55 l-39 -41 35 7 c19 4 45 9 56 12 14
3 24 -1 28 -13 4 -9 5 -18 4 -19 -2 -1 -29 -17 -60 -35 -46 -25 -58 -29 -58
-16 0 8 17 25 38 36 l37 20 -52 -6 c-64 -8 -68 4 -20 54 l32 35 -42 -24 c-42
-24 -42 -24 -57 -4 -10 13 -11 24 -4 32 15 18 -9 55 -34 51 -43 -6 -28 21 19
35 59 18 90 20 99 6z m-1632 -61 c-33 -16 -49 -55 -49 -123 0 -77 22 -115 65
-115 29 0 30 1 30 48 0 26 -5 53 -12 60 -9 9 -2 12 34 12 l45 0 -5 -52 c-5
-64 -20 -78 -85 -78 -91 0 -144 58 -134 149 4 36 13 52 41 78 23 21 45 33 63
32 27 0 27 -1 7 -11z m71 -38 c9 -18 23 -30 35 -30 11 0 20 -2 20 -4 0 -2 3
-11 6 -20 5 -14 -4 -16 -60 -16 -50 0 -66 -3 -66 -14 0 -8 7 -16 15 -20 10 -3
15 -19 15 -46 0 -33 -3 -40 -20 -40 -32 0 -52 43 -52 110 0 75 20 110 62 110
23 0 33 -7 45 -30z m101 -207 c-41 -40 -54 -58 -47 -67 8 -9 -6 -29 -49 -71
-33 -32 -63 -56 -66 -52 -10 9 26 48 38 41 4 -3 7 0 6 8 -2 7 3 12 10 10 8 -1
11 2 7 9 -6 10 -46 -17 -67 -45 -3 -5 -14 -2 -23 8 -14 13 -15 19 -5 31 8 10
9 15 2 15 -6 0 -14 -5 -17 -10 -7 -12 -35 12 -35 31 0 8 5 8 18 -2 15 -13 16
-12 3 4 -10 13 -17 15 -27 6 -13 -11 -18 -6 -15 14 0 4 -4 7 -9 7 -5 0 -10 5
-10 12 0 9 3 9 12 0 14 -14 28 -16 28 -3 0 12 -39 21 -46 10 -3 -5 -10 -7 -15
-3 -6 4 -6 11 1 19 8 9 8 15 0 20 -6 3 -8 11 -5 16 4 5 1 9 -4 9 -6 0 -11 -4
-11 -10 0 -5 -7 -10 -16 -10 -13 0 -14 3 -5 14 9 11 9 16 0 22 -8 4 -9 3 -5
-4 4 -7 2 -12 -3 -12 -13 0 -14 10 -1 30 8 12 25 0 92 -65 45 -44 87 -87 94
-95 11 -13 16 -12 38 9 14 13 23 29 19 35 -3 6 -2 8 2 3 11 -9 66 43 59 55 -3
5 0 7 8 6 7 -2 12 3 10 10 -1 8 2 11 6 8 5 -3 17 3 26 13 10 10 14 21 9 23 -4
3 -3 3 4 2 7 -2 15 1 18 7 4 5 11 6 17 3 6 -4 -14 -30 -46 -61z m1666 -170
c18 -16 25 -63 9 -63 -5 0 -12 11 -15 25 -5 18 -13 25 -30 25 -37 0 -56 -10
-56 -30 0 -38 12 -50 60 -56 91 -12 93 -38 6 -81 -53 -26 -90 -25 -53 1 22 17
22 41 -1 58 -16 11 -42 66 -42 89 0 5 9 18 20 29 24 24 77 26 102 3z m-1362
-979 l0 -637 -122 6 c-370 17 -723 221 -934 537 -130 195 -197 396 -211 632
l-6 98 636 0 637 0 0 -636z m1310 286 c0 -6 10 -6 26 0 33 13 34 13 34 -4 0
-8 -13 -17 -30 -21 -36 -8 -39 -20 -5 -32 16 -5 22 -12 17 -20 -6 -10 -19 -9
-57 2 -52 16 -65 11 -65 -27 0 -24 17 -23 30 3 13 24 24 18 25 -13 0 -28 22
-34 30 -9 10 32 28 26 20 -6 -10 -43 -19 -47 -71 -29 -66 22 -68 19 -6 -9 28
-13 52 -29 52 -34 0 -15 -20 -13 -50 4 -43 24 -45 16 -5 -18 49 -43 41 -61
-24 -53 l-46 6 44 -20 c29 -14 41 -24 34 -31 -6 -6 -29 -1 -66 16 -31 13 -57
27 -57 29 0 26 15 33 63 29 l52 -5 -37 34 -38 33 25 75 c14 41 25 80 25 87 0
21 41 43 62 32 10 -5 18 -14 18 -19z m-2505 -280 c8 -16 15 -34 15 -40 0 -18
-18 -11 -25 11 -7 22 -32 20 -26 -2 2 -8 4 -19 4 -26 0 -6 6 -9 14 -6 26 10
58 -7 82 -43 l23 -37 -40 -34 c-65 -54 -33 -89 35 -37 30 22 53 25 53 6 0 -10
-84 -62 -100 -62 -22 0 -50 32 -50 57 0 22 10 34 52 65 16 12 16 14 -1 37 -33
43 -101 6 -73 -40 16 -25 15 -29 -3 -29 -9 0 -21 12 -27 26 -10 21 -9 31 4 54
12 21 13 32 4 48 -8 14 -16 18 -25 13 -10 -7 -10 -13 -2 -29 19 -35 -7 -36
-28 -1 l-20 33 57 33 c31 18 58 33 59 33 1 0 9 -13 18 -30z m2225 -197 c0 -3
-7 -15 -17 -25 -21 -24 -11 -33 25 -20 36 12 62 -1 62 -31 -1 -12 -21 -44 -45
-72 l-44 -50 -48 47 -47 47 23 25 c13 14 28 23 32 20 5 -3 9 3 9 12 0 10 7 26
17 36 16 18 33 24 33 11z m-470 -398 c7 -8 10 -24 7 -34 -3 -14 3 -25 19 -36
35 -23 19 -39 -16 -18 -34 20 -46 13 -31 -15 8 -15 7 -21 -3 -25 -10 -4 -22
12 -37 47 -23 52 -25 53 -46 38 -30 -19 -29 -36 2 -30 17 4 25 1 25 -8 0 -8
-7 -14 -16 -14 -9 0 -14 -7 -12 -17 2 -13 11 -17 31 -15 15 2 27 0 27 -5 0
-11 -60 -34 -71 -28 -4 3 -15 28 -24 56 -22 66 -31 56 -11 -12 19 -63 19 -59
2 -59 -8 0 -17 12 -20 26 -5 18 -12 24 -22 20 -9 -3 -20 -6 -25 -6 -5 0 -8
-13 -7 -29 5 -52 -15 -38 -34 24 -13 45 -14 61 -5 67 8 5 15 -2 20 -17 14 -39
55 -29 53 13 -1 20 11 28 79 57 92 39 98 40 115 20z m-286 -142 c19 -32 30
-60 25 -62 -6 -2 -16 2 -22 8 -18 18 -54 13 -60 -8 -3 -13 -17 -21 -47 -26
-52 -9 -81 14 -82 65 -1 38 32 73 66 68 30 -4 26 -22 -6 -26 -54 -6 -43 -82
11 -82 27 0 30 3 36 53 4 28 9 55 12 60 11 19 34 2 67 -50z m-447 26 c17 -15
17 -48 -1 -55 -12 -5 -13 -11 -4 -30 19 -40 28 -27 28 37 l0 62 38 -7 c20 -3
49 -6 65 -6 15 0 27 -4 27 -10 0 -5 -9 -10 -20 -10 -18 0 -20 -7 -20 -55 0
-44 -3 -55 -16 -55 -13 0 -15 10 -12 55 3 47 0 55 -14 55 -12 0 -18 -8 -18
-24 0 -13 -3 -37 -6 -53 -5 -26 -9 -29 -36 -25 -19 3 -33 13 -40 28 -14 29
-28 31 -28 4 0 -12 -7 -20 -16 -20 -14 0 -16 8 -10 46 3 26 6 56 6 67 0 17 5
19 32 13 17 -3 37 -11 45 -17z"/>
</g>
</svg>
